<?xml version="1.0" encoding="UTF-8"?>
<!DOCTYPE svg PUBLIC "-//W3C//DTD SVG 1.1//EN" "http://www.w3.org/Graphics/SVG/1.1/DTD/svg11.dtd">
<svg version="1.2" width="30.48mm" height="32.64mm" viewBox="0 0 3048 3264" preserveAspectRatio="xMidYMid" fill-rule="evenodd" stroke-width="28.222" stroke-linejoin="round" xmlns="http://www.w3.org/2000/svg" xmlns:ooo="http://xml.openoffice.org/svg/export" xmlns:xlink="http://www.w3.org/1999/xlink" xmlns:presentation="http://sun.com/xmlns/staroffice/presentation" xmlns:smil="http://www.w3.org/2001/SMIL20/" xmlns:anim="urn:oasis:names:tc:opendocument:xmlns:animation:1.0" xml:space="preserve">
 <defs class="ClipPathGroup">
  <clipPath id="presentation_clip_path" clipPathUnits="userSpaceOnUse">
   <rect x="0" y="0" width="3048" height="3264"/>
  </clipPath>
  <clipPath id="presentation_clip_path_shrink" clipPathUnits="userSpaceOnUse">
   <rect x="3" y="3" width="3042" height="3258"/>
  </clipPath>
 </defs>
 <defs class="TextShapeIndex">
  <g ooo:slide="id1" ooo:id-list="id3"/>
 </defs>
 <defs class="EmbeddedBulletChars">
  <g id="bullet-char-template-57356" transform="scale(0.00048828125,-0.00048828125)">
   <path d="M 580,1141 L 1163,571 580,0 -4,571 580,1141 Z"/>
  </g>
  <g id="bullet-char-template-57354" transform="scale(0.00048828125,-0.00048828125)">
   <path d="M 8,1128 L 1137,1128 1137,0 8,0 8,1128 Z"/>
  </g>
  <g id="bullet-char-template-10146" transform="scale(0.00048828125,-0.00048828125)">
   <path d="M 174,0 L 602,739 174,1481 1456,739 174,0 Z M 1358,739 L 309,1346 659,739 1358,739 Z"/>
  </g>
  <g id="bullet-char-template-10132" transform="scale(0.00048828125,-0.00048828125)">
   <path d="M 2015,739 L 1276,0 717,0 1260,543 174,543 174,936 1260,936 717,1481 1274,1481 2015,739 Z"/>
  </g>
  <g id="bullet-char-template-10007" transform="scale(0.00048828125,-0.00048828125)">
   <path d="M 0,-2 C -7,14 -16,27 -25,37 L 356,567 C 262,823 215,952 215,954 215,979 228,992 255,992 264,992 276,990 289,987 310,991 331,999 354,1012 L 381,999 492,748 772,1049 836,1024 860,1049 C 881,1039 901,1025 922,1006 886,937 835,863 770,784 769,783 710,716 594,584 L 774,223 C 774,196 753,168 711,139 L 727,119 C 717,90 699,76 672,76 641,76 570,178 457,381 L 164,-76 C 142,-110 111,-127 72,-127 30,-127 9,-110 8,-76 1,-67 -2,-52 -2,-32 -2,-23 -1,-13 0,-2 Z"/>
  </g>
  <g id="bullet-char-template-10004" transform="scale(0.00048828125,-0.00048828125)">
   <path d="M 285,-33 C 182,-33 111,30 74,156 52,228 41,333 41,471 41,549 55,616 82,672 116,743 169,778 240,778 293,778 328,747 346,684 L 369,508 C 377,444 397,411 428,410 L 1163,1116 C 1174,1127 1196,1133 1229,1133 1271,1133 1292,1118 1292,1087 L 1292,965 C 1292,929 1282,901 1262,881 L 442,47 C 390,-6 338,-33 285,-33 Z"/>
  </g>
  <g id="bullet-char-template-9679" transform="scale(0.00048828125,-0.00048828125)">
   <path d="M 813,0 C 632,0 489,54 383,161 276,268 223,411 223,592 223,773 276,916 383,1023 489,1130 632,1184 813,1184 992,1184 1136,1130 1245,1023 1353,916 1407,772 1407,592 1407,412 1353,268 1245,161 1136,54 992,0 813,0 Z"/>
  </g>
  <g id="bullet-char-template-8226" transform="scale(0.00048828125,-0.00048828125)">
   <path d="M 346,457 C 273,457 209,483 155,535 101,586 74,649 74,723 74,796 101,859 155,911 209,963 273,989 346,989 419,989 480,963 531,910 582,859 608,796 608,723 608,648 583,586 532,535 482,483 420,457 346,457 Z"/>
  </g>
  <g id="bullet-char-template-8211" transform="scale(0.00048828125,-0.00048828125)">
   <path d="M -4,459 L 1135,459 1135,606 -4,606 -4,459 Z"/>
  </g>
  <g id="bullet-char-template-61548" transform="scale(0.00048828125,-0.00048828125)">
   <path d="M 173,740 C 173,903 231,1043 346,1159 462,1274 601,1332 765,1332 928,1332 1067,1274 1183,1159 1299,1043 1357,903 1357,740 1357,577 1299,437 1183,322 1067,206 928,148 765,148 601,148 462,206 346,322 231,437 173,577 173,740 Z"/>
  </g>
 </defs>
 <g>
  <g id="id2" class="Master_Slide">
   <g id="bg-id2" class="Background"/>
   <g id="bo-id2" class="BackgroundObjects"/>
  </g>
 </g>
 <g class="SlideGroup">
  <g>
   <g id="container-id1">
    <g id="id1" class="Slide" clip-path="url(#presentation_clip_path)">
     <g class="Page">
      <g class="Graphic">
       <g id="id3">
        <rect class="BoundingBox" stroke="none" fill="none" x="1025" y="1053" width="1011" height="1083"/>
        <defs>
         <clipPath id="clip_path_1" clipPathUnits="userSpaceOnUse">
          <path d="M 1025,1053 L 2035,1053 2035,2135 1025,2135 1025,1053 Z"/>
         </clipPath>
        </defs>
        <g clip-path="url(#clip_path_1)">
         <path fill="rgb(0,0,0)" stroke="none" d="M 1842,1750 C 1947,1750 2033,1836 2033,1942 2033,2047 1947,2133 1842,2133 1736,2133 1650,2047 1650,1942 1650,1836 1736,1750 1842,1750 L 1842,1750 1842,1750 Z M 1096,1055 L 1931,1055 C 1950,1055 1967,1063 1980,1075 1992,1088 2000,1105 2000,1124 L 2000,1738 C 1978,1721 1954,1708 1928,1699 L 1928,1141 C 1928,1137 1926,1134 1924,1131 1921,1129 1918,1127 1914,1127 L 1112,1127 C 1108,1127 1105,1129 1103,1131 1101,1134 1099,1137 1099,1141 L 1099,1755 1099,1755 1379,1486 C 1391,1476 1408,1477 1418,1488 1419,1488 1419,1489 1419,1489 L 1655,1768 C 1613,1813 1588,1874 1588,1940 1588,1969 1593,1997 1602,2022 L 1096,2022 C 1077,2022 1060,2015 1047,2002 1035,1990 1027,1972 1027,1954 L 1027,1124 C 1027,1105 1035,1088 1047,1075 1060,1063 1077,1055 1096,1055 L 1096,1055 1096,1055 Z M 1674,1749 L 1706,1549 C 1709,1534 1723,1524 1738,1526 1744,1527 1749,1530 1753,1534 L 1903,1691 C 1884,1687 1864,1684 1843,1684 1778,1684 1719,1709 1674,1749 L 1674,1749 1674,1749 Z M 1744,1213 C 1771,1213 1796,1224 1814,1242 1832,1260 1843,1285 1843,1312 1843,1340 1832,1365 1814,1382 1796,1401 1771,1412 1744,1412 1716,1412 1691,1400 1673,1382 1655,1364 1644,1340 1644,1312 1644,1285 1656,1260 1673,1242 1692,1223 1716,1213 1744,1213 L 1744,1213 1744,1213 Z M 1777,1825 L 1952,2015 C 1966,1994 1974,1969 1974,1942 1974,1868 1915,1809 1842,1809 1818,1809 1797,1815 1777,1825 L 1777,1825 1777,1825 Z M 1906,2058 L 1731,1868 C 1717,1889 1709,1914 1709,1941 1709,2015 1768,2074 1841,2074 1865,2074 1887,2068 1906,2058 L 1906,2058 1906,2058 Z"/>
         <path fill="none" stroke="rgb(0,0,0)" stroke-width="4" stroke-linejoin="miter" d="M 1842,1750 C 1947,1750 2033,1836 2033,1942 2033,2047 1947,2133 1842,2133 1736,2133 1650,2047 1650,1942 1650,1836 1736,1750 1842,1750 Z"/>
         <path fill="none" stroke="rgb(0,0,0)" stroke-width="4" stroke-linejoin="miter" d="M 1096,1055 L 1931,1055 C 1950,1055 1967,1063 1980,1075 1992,1088 2000,1105 2000,1124 L 2000,1738 C 1978,1721 1954,1708 1928,1699 L 1928,1141 C 1928,1137 1926,1134 1924,1131 1921,1129 1918,1127 1914,1127 L 1112,1127 C 1108,1127 1105,1129 1103,1131 1101,1134 1099,1137 1099,1141 L 1099,1755 1099,1755 1379,1486 C 1391,1476 1408,1477 1418,1488 1419,1488 1419,1489 1419,1489 L 1655,1768 C 1613,1813 1588,1874 1588,1940 1588,1969 1593,1997 1602,2022 L 1096,2022 C 1077,2022 1060,2015 1047,2002 1035,1990 1027,1972 1027,1954 L 1027,1124 C 1027,1105 1035,1088 1047,1075 1060,1063 1077,1055 1096,1055 Z"/>
         <path fill="none" stroke="rgb(0,0,0)" stroke-width="4" stroke-linejoin="miter" d="M 1674,1749 L 1706,1549 C 1709,1534 1723,1524 1738,1526 1744,1527 1749,1530 1753,1534 L 1903,1691 C 1884,1687 1864,1684 1843,1684 1778,1684 1719,1709 1674,1749 Z"/>
         <path fill="none" stroke="rgb(0,0,0)" stroke-width="4" stroke-linejoin="miter" d="M 1744,1213 C 1771,1213 1796,1224 1814,1242 1832,1260 1843,1285 1843,1312 1843,1340 1832,1365 1814,1382 1796,1401 1771,1412 1744,1412 1716,1412 1691,1400 1673,1382 1655,1364 1644,1340 1644,1312 1644,1285 1656,1260 1673,1242 1692,1223 1716,1213 1744,1213 Z"/>
         <path fill="none" stroke="rgb(0,0,0)" stroke-width="4" stroke-linejoin="miter" d="M 1777,1825 L 1952,2015 C 1966,1994 1974,1969 1974,1942 1974,1868 1915,1809 1842,1809 1818,1809 1797,1815 1777,1825 Z"/>
         <path fill="none" stroke="rgb(0,0,0)" stroke-width="4" stroke-linejoin="miter" d="M 1906,2058 L 1731,1868 C 1717,1889 1709,1914 1709,1941 1709,2015 1768,2074 1841,2074 1865,2074 1887,2068 1906,2058 Z"/>
        </g>
       </g>
      </g>
     </g>
    </g>
   </g>
  </g>
 </g>
</svg>